<svg width="135" height="48" viewBox="0 0 135 48" fill="none" xmlns="http://www.w3.org/2000/svg">
<g clip-path="url(#clip0)">
<path d="M98.954 48C109.869 48 118.717 39.027 118.717 27.96C118.717 16.89 109.869 7.91803 98.954 7.91803C88.039 7.91803 79.191 16.891 79.191 27.959C79.191 39.027 88.04 48 98.954 48Z" fill="#FFCD00"/>
<path d="M85.3 7.903C87.452 7.903 89.196 6.134 89.196 3.952C89.196 1.769 87.452 0 85.3 0C83.148 0 81.403 1.77 81.403 3.952C81.403 6.134 83.148 7.903 85.3 7.903Z" fill="#FFF1B8"/>
<path d="M101.397 32.226C100.778 32.775 99.99 33.056 99.047 33.056C97.809 33.056 96.851 32.602 96.186 31.677C95.521 30.767 95.196 29.387 95.196 27.537V26.926C95.196 25.091 95.536 23.726 96.201 22.833C96.866 21.939 97.809 21.484 99.031 21.484C99.99 21.484 100.778 21.798 101.397 22.425C102.016 23.052 102.34 23.868 102.387 24.84H105.959C105.897 22.911 105.247 21.359 103.979 20.167C102.711 18.991 101.088 18.395 99.077 18.395C96.711 18.395 94.856 19.195 93.48 20.747C92.103 22.3 91.423 24.385 91.423 26.988V27.38C91.423 30.109 92.119 32.241 93.495 33.794C94.871 35.346 96.742 36.114 99.093 36.114C100.275 36.1231 101.441 35.8491 102.495 35.315C103.546 34.782 104.366 34.06 104.985 33.135C105.576 32.2493 105.913 31.2187 105.959 30.155H102.387C102.375 30.5499 102.281 30.938 102.11 31.2945C101.94 31.6509 101.697 31.9678 101.397 32.225V32.226ZM92.227 39.251H105.71V41.98H92.227V39.25V39.251Z" fill="white"/>
<path d="M53.0261 35.8H49.2371V11.542H53.0261V35.8Z" fill="black"/>
<path fill-rule="evenodd" clip-rule="evenodd" d="M12 12.812V35.8H20.289C22.825 35.8 24.789 35.22 26.149 34.06C27.51 32.9 28.191 31.253 28.191 29.089C28.191 27.787 27.851 26.659 27.186 25.733C26.506 24.808 25.562 24.165 24.34 23.836C25.423 23.366 26.242 22.722 26.799 21.876C27.356 21.044 27.634 20.088 27.634 19.037C27.634 16.967 26.969 15.415 25.624 14.38C24.278 13.33 22.33 12.812 19.763 12.812H12ZM19.81 22.487H15.942V16.027H19.777C21.123 16.027 22.127 16.277 22.762 16.779C23.396 17.281 23.721 18.112 23.721 19.241C23.721 20.276 23.381 21.076 22.685 21.641C21.989 22.205 21.03 22.487 19.808 22.487H19.81ZM15.942 32.57V25.42H20.63C23.042 25.482 24.248 26.69 24.248 29.073C24.248 30.171 23.908 31.033 23.212 31.645C22.516 32.256 21.558 32.57 20.321 32.57H15.943H15.942ZM41.381 34.2C41.505 34.938 41.644 35.471 41.814 35.8H45.665V35.534C45.247 34.608 45.031 33.385 45.031 31.849V24.149C45 22.33 44.397 20.919 43.221 19.915C42.046 18.912 40.485 18.41 38.505 18.41C37.206 18.41 36.031 18.63 34.979 19.1C33.912 19.555 33.093 20.198 32.474 21.013C31.871 21.828 31.562 22.706 31.562 23.647H35.35C35.35 22.973 35.613 22.424 36.17 21.985C36.727 21.546 37.423 21.327 38.289 21.327C39.279 21.327 40.021 21.593 40.515 22.127C40.995 22.644 41.242 23.365 41.242 24.243V25.357H38.922C36.448 25.357 34.531 25.843 33.201 26.815C31.871 27.787 31.206 29.183 31.206 31.002C31.206 32.444 31.747 33.668 32.814 34.64C33.881 35.628 35.274 36.114 36.959 36.114C38.706 36.114 40.175 35.471 41.381 34.201V34.2ZM39.758 32.492C39.108 32.852 38.397 33.04 37.655 33.04C36.85 33.04 36.201 32.82 35.706 32.382C35.226 31.942 34.979 31.362 34.979 30.626C34.979 29.716 35.335 29.026 36.046 28.524C36.742 28.038 37.794 27.787 39.201 27.787H41.242V31.002C40.911 31.6385 40.3931 32.1584 39.758 32.492ZM66.773 34.2C66.897 34.938 67.036 35.471 67.206 35.8H71.072V35.534C70.655 34.608 70.438 33.385 70.438 31.849V24.149C70.408 22.33 69.804 20.919 68.628 19.915C67.454 18.912 65.892 18.41 63.912 18.41C62.613 18.41 61.438 18.63 60.387 19.1C59.32 19.555 58.5 20.198 57.882 21.013C57.278 21.828 56.969 22.706 56.969 23.647H60.742C60.742 22.973 61.005 22.424 61.562 21.985C62.119 21.546 62.814 21.327 63.68 21.327C64.67 21.327 65.412 21.593 65.907 22.127C66.387 22.644 66.634 23.365 66.634 24.243V25.357H64.314C61.84 25.357 59.923 25.843 58.593 26.815C57.263 27.787 56.598 29.183 56.598 31.002C56.598 32.444 57.139 33.668 58.206 34.64C59.273 35.628 60.665 36.114 62.35 36.114C64.098 36.114 65.567 35.471 66.773 34.201V34.2ZM65.165 32.492C64.515 32.852 63.805 33.04 63.062 33.04C62.242 33.04 61.592 32.82 61.129 32.382C60.649 31.942 60.402 31.362 60.402 30.626C60.402 29.716 60.742 29.026 61.454 28.524C62.15 28.038 63.201 27.787 64.608 27.787H66.65V31.002C66.3187 31.6386 65.8005 32.1586 65.165 32.492Z" fill="black"/>
<path d="M77.907 18.708L78.016 20.684C79.268 19.163 80.892 18.394 82.917 18.394C86.427 18.394 88.207 20.433 88.268 24.51V35.8H84.495V24.73C84.495 23.647 84.263 22.848 83.799 22.314C83.335 21.797 82.577 21.53 81.541 21.53C80.011 21.53 78.881 22.236 78.124 23.632V35.785H74.335V18.708H77.907Z" fill="black"/>
<path fill-rule="evenodd" clip-rule="evenodd" d="M110.412 33.825C111.897 35.345 113.845 36.114 116.242 36.114C117.65 36.114 118.902 35.832 120.031 35.299C121.128 34.7577 122.062 33.9351 122.737 32.915L120.696 30.939C119.598 32.366 118.191 33.072 116.459 33.072C115.222 33.072 114.201 32.648 113.381 31.833C112.562 31.018 112.098 29.904 111.99 28.493H123V26.94C123 24.228 122.381 22.126 121.129 20.637C119.876 19.147 118.098 18.41 115.809 18.41C114.356 18.41 113.057 18.77 111.882 19.523C110.706 20.276 109.794 21.311 109.144 22.66C108.494 24.008 108.17 25.53 108.17 27.238V27.708C108.17 30.249 108.928 32.288 110.412 33.825ZM113.273 22.581C113.923 21.86 114.758 21.483 115.794 21.483C116.845 21.483 117.665 21.797 118.253 22.456C118.84 23.114 119.18 24.086 119.258 25.372V25.655H112.052C112.222 24.337 112.639 23.318 113.273 22.581Z" fill="black"/>
</g>
<defs>
<clipPath id="clip0">
<rect x="12" width="111" height="48" fill="white"/>
</clipPath>
</defs>
</svg>
