<svg width="111" height="46" viewBox="0 0 111 46" fill="none" xmlns="http://www.w3.org/2000/svg">
<g clip-path="url(#clip0_988_2078)">
<path d="M68.8516 0H110.818V38.4789H84.9933L87.2519 34.5912L75.757 46V38.4789H68.8516V0ZM104.151 24.1603L104.57 8.25978H100.484L100.906 24.1603H104.151ZM100.628 30.2191H104.404V26.475H100.628V30.2191ZM75.4554 19.2409C75.4554 24.8541 79.1916 30.4703 86.6126 30.4942C94.0337 30.5181 97.6794 24.8631 97.6794 19.2409C97.6794 13.6188 94.0126 7.98764 86.5704 7.98764C79.2036 8.00858 75.4554 13.6248 75.4554 19.2409ZM86.6458 11.6839H86.688C91.3529 11.6839 93.6567 15.4041 93.6567 19.1183C93.6567 22.8325 91.3529 26.5527 86.688 26.5527H86.6458C82.011 26.5288 79.6288 22.8236 79.6288 19.1183C79.6288 15.4131 82.0231 11.7078 86.6579 11.6839H86.6458Z" fill="#F0047F"/>
<path d="M4.99963 8.21777L11.3984 25.0932L17.7822 8.22973H22.7637V30.2309H18.925V22.967L19.305 13.2658L12.7554 30.2189H9.99625L3.45873 13.2807L3.8417 22.967V30.2189H0V8.21777H4.99963Z" fill="black"/>
<path d="M26.2677 21.8934C26.2438 20.3954 26.5732 18.9126 27.2296 17.5632C27.8175 16.3365 28.7546 15.3073 29.9254 14.6026C31.1343 13.8986 32.5162 13.5405 33.9179 13.5679C36.1413 13.5679 37.9506 14.2776 39.3457 15.6971C40.7409 17.1166 41.4897 19.0006 41.5922 21.3492L41.6103 22.2104C41.6367 23.7035 41.3147 25.1824 40.6695 26.5317C40.0892 27.7549 39.1563 28.7799 37.9888 29.4774C36.7694 30.1888 35.3746 30.5502 33.9601 30.5211C31.6322 30.5211 29.7706 29.7525 28.3755 28.2154C26.9803 26.6783 26.2767 24.6308 26.2646 22.0729L26.2677 21.8934ZM29.9707 22.2104C29.9707 23.8941 30.3235 25.2009 31.02 26.1609C31.3495 26.6221 31.7899 26.9944 32.3012 27.244C32.8125 27.4937 33.3786 27.6127 33.948 27.5904C34.5169 27.6106 35.0818 27.4884 35.5904 27.2349C36.099 26.9814 36.5349 26.6048 36.858 26.14C37.5515 25.171 37.8983 23.7555 37.8983 21.8934C37.8983 20.2407 37.5405 18.9308 36.8248 17.9639C36.4897 17.5157 36.0539 17.1511 35.5519 16.8992C35.0499 16.6472 34.4956 16.5148 33.933 16.5125C33.3704 16.5102 32.815 16.638 32.3109 16.8858C31.8068 17.1336 31.3679 17.4945 31.0291 17.94C30.3235 18.895 29.9707 20.3184 29.9707 22.2104Z" fill="black"/>
<path d="M55.0201 13.8699H58.708V30.219H55.0201V19.3096L48.561 30.219H44.873V13.8699H48.561V24.7942L55.0201 13.8699ZM56.757 7.58984C56.7773 8.16993 56.6677 8.74727 56.4362 9.28037C56.2048 9.81348 55.857 10.2891 55.4181 10.6731C54.5255 11.4566 53.3314 11.8493 51.8358 11.8513C50.3401 11.8533 49.147 11.4606 48.2564 10.6731C47.8171 10.2892 47.4689 9.81373 47.2369 9.28065C47.0049 8.74756 46.8948 8.17014 46.9145 7.58984H49.6887C49.6717 7.86938 49.7136 8.14937 49.8117 8.41197C49.9098 8.67456 50.062 8.914 50.2587 9.115C50.6914 9.49566 51.2582 9.69129 51.8358 9.65928C52.1209 9.67564 52.4064 9.63598 52.676 9.54258C52.9456 9.44918 53.194 9.30387 53.4068 9.115C53.6014 8.91286 53.752 8.6731 53.849 8.41069C53.946 8.14828 53.9874 7.86885 53.9707 7.58984H56.757Z" fill="black"/>
</g>
<defs>
<clipPath id="clip0_988_2078">
<rect width="110.818" height="46" fill="white"/>
</clipPath>
</defs>
</svg>
